# xmcd
# 
# Track frame offsets:
#     150
#     19931
#     35815
#     58640
#     75340
#     88333
#     105375
#     116566
#     134108
#     148756
#     166836
#     185530
#     195328
#     209758
#     228685
#     243767
# 
# Disc length: 3497
# 
# Revision: 3
# Processed by: cddbd v1.5.2PL0 Copyright (c) Steve Scherf et al.
# Submitted via: BonkEnc v1.0.6
# 
DISCID=e40da710
DTITLE=Various Artist - Bella Italia CD 2
DYEAR=0
DGENRE=
TTITLE0=Gloria
TTITLE1=Una stroia importante
TTITLE2=Buona domenica
TTITLE3=Serenata
TTITLE4=Svaluation
TTITLE5=Dolce amore mio
TTITLE6=Lucia-Luci
TTITLE7=Sempre, sempre
TTITLE8=Ch chi chi c  c
TTITLE9=Tu
TTITLE10=Torner
TTITLE11=La mattinata
TTITLE12=Ciao Italy, ciao amore
TTITLE13=Ti sento
TTITLE14=Amada mia, amore mio
TTITLE15=Ti amo
EXTD=
EXTT0=
EXTT1=
EXTT2=
EXTT3=
EXTT4=
EXTT5=
EXTT6=
EXTT7=
EXTT8=
EXTT9=
EXTT10=
EXTT11=
EXTT12=
EXTT13=
EXTT14=
EXTT15=
PLAYORDER=
